<?xml version="1.0" encoding="UTF-8" standalone="no"?>
<!DOCTYPE svg PUBLIC "-//W3C//DTD SVG 1.1//EN"
 "http://www.w3.org/Graphics/SVG/1.1/DTD/svg11.dtd">
<!-- Generated by graphviz version 10.0.1 (20240210.2158)
 -->
<!-- Pages: 1 -->
<svg width="278pt" height="332pt"
 viewBox="0.00 0.00 278.00 332.00" xmlns="http://www.w3.org/2000/svg" xmlns:xlink="http://www.w3.org/1999/xlink">
<g id="graph0" class="graph" transform="scale(1 1) rotate(0) translate(4 328)">
<polygon fill="white" stroke="none" points="-4,4 -4,-328 274,-328 274,4 -4,4"/>
<!-- 63 -->
<g id="node1" class="node">
<title>63</title>
<ellipse fill="none" stroke="black" cx="135" cy="-306" rx="27" ry="18"/>
<text text-anchor="middle" x="135" y="-300.95" font-family="Times,serif" font-size="14.00">63</text>
</g>
<!-- 59 -->
<g id="node2" class="node">
<title>59</title>
<ellipse fill="none" stroke="black" cx="99" cy="-234" rx="27" ry="18"/>
<text text-anchor="middle" x="99" y="-228.95" font-family="Times,serif" font-size="14.00">59</text>
</g>
<!-- 63&#45;&#45;59 -->
<g id="edge1" class="edge">
<title>63&#45;&#45;59</title>
<path fill="none" stroke="black" d="M126.65,-288.76C120.83,-277.46 113.11,-262.44 107.3,-251.15"/>
</g>
<!-- 67 -->
<g id="node3" class="node">
<title>67</title>
<ellipse fill="none" stroke="black" cx="171" cy="-234" rx="27" ry="18"/>
<text text-anchor="middle" x="171" y="-228.95" font-family="Times,serif" font-size="14.00">67</text>
</g>
<!-- 63&#45;&#45;67 -->
<g id="edge2" class="edge">
<title>63&#45;&#45;67</title>
<path fill="none" stroke="black" d="M143.35,-288.76C149.17,-277.46 156.89,-262.44 162.7,-251.15"/>
</g>
<!-- 15 -->
<g id="node4" class="node">
<title>15</title>
<ellipse fill="none" stroke="black" cx="27" cy="-162" rx="27" ry="18"/>
<text text-anchor="middle" x="27" y="-156.95" font-family="Times,serif" font-size="14.00">15</text>
</g>
<!-- 59&#45;&#45;15 -->
<g id="edge3" class="edge">
<title>59&#45;&#45;15</title>
<path fill="none" stroke="black" d="M84.08,-218.5C71.72,-206.48 54.25,-189.49 41.9,-177.49"/>
</g>
<!-- 61 -->
<g id="node5" class="node">
<title>61</title>
<ellipse fill="none" stroke="black" cx="99" cy="-162" rx="27" ry="18"/>
<text text-anchor="middle" x="99" y="-156.95" font-family="Times,serif" font-size="14.00">61</text>
</g>
<!-- 59&#45;&#45;61 -->
<g id="edge4" class="edge">
<title>59&#45;&#45;61</title>
<path fill="none" stroke="black" d="M99,-215.7C99,-204.85 99,-190.92 99,-180.1"/>
</g>
<!-- 92 -->
<g id="node6" class="node">
<title>92</title>
<ellipse fill="none" stroke="black" cx="171" cy="-162" rx="27" ry="18"/>
<text text-anchor="middle" x="171" y="-156.95" font-family="Times,serif" font-size="14.00">92</text>
</g>
<!-- 67&#45;&#45;92 -->
<g id="edge5" class="edge">
<title>67&#45;&#45;92</title>
<path fill="none" stroke="black" d="M171,-215.7C171,-204.85 171,-190.92 171,-180.1"/>
</g>
<!-- 30 -->
<g id="node7" class="node">
<title>30</title>
<ellipse fill="none" stroke="black" cx="27" cy="-90" rx="27" ry="18"/>
<text text-anchor="middle" x="27" y="-84.95" font-family="Times,serif" font-size="14.00">30</text>
</g>
<!-- 15&#45;&#45;30 -->
<g id="edge6" class="edge">
<title>15&#45;&#45;30</title>
<path fill="none" stroke="black" d="M27,-143.7C27,-132.85 27,-118.92 27,-108.1"/>
</g>
<!-- 90 -->
<g id="node8" class="node">
<title>90</title>
<ellipse fill="none" stroke="black" cx="135" cy="-90" rx="27" ry="18"/>
<text text-anchor="middle" x="135" y="-84.95" font-family="Times,serif" font-size="14.00">90</text>
</g>
<!-- 92&#45;&#45;90 -->
<g id="edge7" class="edge">
<title>92&#45;&#45;90</title>
<path fill="none" stroke="black" d="M162.65,-144.76C156.83,-133.46 149.11,-118.44 143.3,-107.15"/>
</g>
<!-- 99 -->
<g id="node9" class="node">
<title>99</title>
<ellipse fill="none" stroke="black" cx="207" cy="-90" rx="27" ry="18"/>
<text text-anchor="middle" x="207" y="-84.95" font-family="Times,serif" font-size="14.00">99</text>
</g>
<!-- 92&#45;&#45;99 -->
<g id="edge8" class="edge">
<title>92&#45;&#45;99</title>
<path fill="none" stroke="black" d="M179.35,-144.76C185.17,-133.46 192.89,-118.44 198.7,-107.15"/>
</g>
<!-- 97 -->
<g id="node10" class="node">
<title>97</title>
<ellipse fill="none" stroke="black" cx="171" cy="-18" rx="27" ry="18"/>
<text text-anchor="middle" x="171" y="-12.95" font-family="Times,serif" font-size="14.00">97</text>
</g>
<!-- 99&#45;&#45;97 -->
<g id="edge9" class="edge">
<title>99&#45;&#45;97</title>
<path fill="none" stroke="black" d="M198.65,-72.76C192.83,-61.46 185.11,-46.44 179.3,-35.15"/>
</g>
<!-- 100 -->
<g id="node11" class="node">
<title>100</title>
<ellipse fill="none" stroke="black" cx="243" cy="-18" rx="27" ry="18"/>
<text text-anchor="middle" x="243" y="-12.95" font-family="Times,serif" font-size="14.00">100</text>
</g>
<!-- 99&#45;&#45;100 -->
<g id="edge10" class="edge">
<title>99&#45;&#45;100</title>
<path fill="none" stroke="black" d="M215.35,-72.76C221.17,-61.46 228.89,-46.44 234.7,-35.15"/>
</g>
</g>
</svg>
