<?xml version="1.0" encoding="UTF-8" standalone="no"?>
<!DOCTYPE svg PUBLIC "-//W3C//DTD SVG 1.1//EN"
 "http://www.w3.org/Graphics/SVG/1.1/DTD/svg11.dtd">
<!-- Generated by graphviz version 10.0.1 (20240210.2158)
 -->
<!-- Pages: 1 -->
<svg width="278pt" height="332pt"
 viewBox="0.00 0.00 278.00 332.00" xmlns="http://www.w3.org/2000/svg" xmlns:xlink="http://www.w3.org/1999/xlink">
<g id="graph0" class="graph" transform="scale(1 1) rotate(0) translate(4 328)">
<polygon fill="white" stroke="none" points="-4,4 -4,-328 274,-328 274,4 -4,4"/>
<!-- 99 -->
<g id="node1" class="node">
<title>99</title>
<ellipse fill="none" stroke="black" cx="135" cy="-306" rx="27" ry="18"/>
<text text-anchor="middle" x="135" y="-300.95" font-family="Times,serif" font-size="14.00">99</text>
</g>
<!-- 46 -->
<g id="node2" class="node">
<title>46</title>
<ellipse fill="none" stroke="black" cx="135" cy="-234" rx="27" ry="18"/>
<text text-anchor="middle" x="135" y="-228.95" font-family="Times,serif" font-size="14.00">46</text>
</g>
<!-- 99&#45;&#45;46 -->
<g id="edge1" class="edge">
<title>99&#45;&#45;46</title>
<path fill="none" stroke="black" d="M135,-287.7C135,-276.85 135,-262.92 135,-252.1"/>
</g>
<!-- 4 -->
<g id="node3" class="node">
<title>4</title>
<ellipse fill="none" stroke="black" cx="99" cy="-162" rx="27" ry="18"/>
<text text-anchor="middle" x="99" y="-156.95" font-family="Times,serif" font-size="14.00">4</text>
</g>
<!-- 46&#45;&#45;4 -->
<g id="edge2" class="edge">
<title>46&#45;&#45;4</title>
<path fill="none" stroke="black" d="M126.65,-216.76C120.83,-205.46 113.11,-190.44 107.3,-179.15"/>
</g>
<!-- 91 -->
<g id="node4" class="node">
<title>91</title>
<ellipse fill="none" stroke="black" cx="171" cy="-162" rx="27" ry="18"/>
<text text-anchor="middle" x="171" y="-156.95" font-family="Times,serif" font-size="14.00">91</text>
</g>
<!-- 46&#45;&#45;91 -->
<g id="edge3" class="edge">
<title>46&#45;&#45;91</title>
<path fill="none" stroke="black" d="M143.35,-216.76C149.17,-205.46 156.89,-190.44 162.7,-179.15"/>
</g>
<!-- 1 -->
<g id="node5" class="node">
<title>1</title>
<ellipse fill="none" stroke="black" cx="27" cy="-90" rx="27" ry="18"/>
<text text-anchor="middle" x="27" y="-84.95" font-family="Times,serif" font-size="14.00">1</text>
</g>
<!-- 4&#45;&#45;1 -->
<g id="edge4" class="edge">
<title>4&#45;&#45;1</title>
<path fill="none" stroke="black" d="M84.08,-146.5C71.72,-134.48 54.25,-117.49 41.9,-105.49"/>
</g>
<!-- 26 -->
<g id="node6" class="node">
<title>26</title>
<ellipse fill="none" stroke="black" cx="99" cy="-90" rx="27" ry="18"/>
<text text-anchor="middle" x="99" y="-84.95" font-family="Times,serif" font-size="14.00">26</text>
</g>
<!-- 4&#45;&#45;26 -->
<g id="edge5" class="edge">
<title>4&#45;&#45;26</title>
<path fill="none" stroke="black" d="M99,-143.7C99,-132.85 99,-118.92 99,-108.1"/>
</g>
<!-- 53 -->
<g id="node7" class="node">
<title>53</title>
<ellipse fill="none" stroke="black" cx="171" cy="-90" rx="27" ry="18"/>
<text text-anchor="middle" x="171" y="-84.95" font-family="Times,serif" font-size="14.00">53</text>
</g>
<!-- 91&#45;&#45;53 -->
<g id="edge6" class="edge">
<title>91&#45;&#45;53</title>
<path fill="none" stroke="black" d="M171,-143.7C171,-132.85 171,-118.92 171,-108.1"/>
</g>
<!-- 96 -->
<g id="node8" class="node">
<title>96</title>
<ellipse fill="none" stroke="black" cx="243" cy="-90" rx="27" ry="18"/>
<text text-anchor="middle" x="243" y="-84.95" font-family="Times,serif" font-size="14.00">96</text>
</g>
<!-- 91&#45;&#45;96 -->
<g id="edge7" class="edge">
<title>91&#45;&#45;96</title>
<path fill="none" stroke="black" d="M185.92,-146.5C198.28,-134.48 215.75,-117.49 228.1,-105.49"/>
</g>
<!-- 39 -->
<g id="node9" class="node">
<title>39</title>
<ellipse fill="none" stroke="black" cx="99" cy="-18" rx="27" ry="18"/>
<text text-anchor="middle" x="99" y="-12.95" font-family="Times,serif" font-size="14.00">39</text>
</g>
<!-- 26&#45;&#45;39 -->
<g id="edge8" class="edge">
<title>26&#45;&#45;39</title>
<path fill="none" stroke="black" d="M99,-71.7C99,-60.85 99,-46.92 99,-36.1"/>
</g>
<!-- 48 -->
<g id="node10" class="node">
<title>48</title>
<ellipse fill="none" stroke="black" cx="171" cy="-18" rx="27" ry="18"/>
<text text-anchor="middle" x="171" y="-12.95" font-family="Times,serif" font-size="14.00">48</text>
</g>
<!-- 53&#45;&#45;48 -->
<g id="edge9" class="edge">
<title>53&#45;&#45;48</title>
<path fill="none" stroke="black" d="M171,-71.7C171,-60.85 171,-46.92 171,-36.1"/>
</g>
<!-- 73 -->
<g id="node11" class="node">
<title>73</title>
<ellipse fill="none" stroke="black" cx="243" cy="-18" rx="27" ry="18"/>
<text text-anchor="middle" x="243" y="-12.95" font-family="Times,serif" font-size="14.00">73</text>
</g>
<!-- 53&#45;&#45;73 -->
<g id="edge10" class="edge">
<title>53&#45;&#45;73</title>
<path fill="none" stroke="black" d="M185.92,-74.5C198.28,-62.48 215.75,-45.49 228.1,-33.49"/>
</g>
</g>
</svg>
