<?xml version="1.0" encoding="UTF-8" standalone="no"?>
<!DOCTYPE svg PUBLIC "-//W3C//DTD SVG 1.1//EN"
 "http://www.w3.org/Graphics/SVG/1.1/DTD/svg11.dtd">
<!-- Generated by graphviz version 10.0.1 (20240210.2158)
 -->
<!-- Pages: 1 -->
<svg width="206pt" height="332pt"
 viewBox="0.00 0.00 206.00 332.00" xmlns="http://www.w3.org/2000/svg" xmlns:xlink="http://www.w3.org/1999/xlink">
<g id="graph0" class="graph" transform="scale(1 1) rotate(0) translate(4 328)">
<polygon fill="white" stroke="none" points="-4,4 -4,-328 202,-328 202,4 -4,4"/>
<!-- 24 -->
<g id="node1" class="node">
<title>24</title>
<ellipse fill="none" stroke="black" cx="63" cy="-306" rx="27" ry="18"/>
<text text-anchor="middle" x="63" y="-300.95" font-family="Times,serif" font-size="14.00">24</text>
</g>
<!-- 15 -->
<g id="node2" class="node">
<title>15</title>
<ellipse fill="none" stroke="black" cx="27" cy="-234" rx="27" ry="18"/>
<text text-anchor="middle" x="27" y="-228.95" font-family="Times,serif" font-size="14.00">15</text>
</g>
<!-- 24&#45;&#45;15 -->
<g id="edge1" class="edge">
<title>24&#45;&#45;15</title>
<path fill="none" stroke="black" d="M54.65,-288.76C48.83,-277.46 41.11,-262.44 35.3,-251.15"/>
</g>
<!-- 40 -->
<g id="node3" class="node">
<title>40</title>
<ellipse fill="none" stroke="black" cx="99" cy="-234" rx="27" ry="18"/>
<text text-anchor="middle" x="99" y="-228.95" font-family="Times,serif" font-size="14.00">40</text>
</g>
<!-- 24&#45;&#45;40 -->
<g id="edge2" class="edge">
<title>24&#45;&#45;40</title>
<path fill="none" stroke="black" d="M71.35,-288.76C77.17,-277.46 84.89,-262.44 90.7,-251.15"/>
</g>
<!-- 70 -->
<g id="node4" class="node">
<title>70</title>
<ellipse fill="none" stroke="black" cx="99" cy="-162" rx="27" ry="18"/>
<text text-anchor="middle" x="99" y="-156.95" font-family="Times,serif" font-size="14.00">70</text>
</g>
<!-- 40&#45;&#45;70 -->
<g id="edge3" class="edge">
<title>40&#45;&#45;70</title>
<path fill="none" stroke="black" d="M99,-215.7C99,-204.85 99,-190.92 99,-180.1"/>
</g>
<!-- 51 -->
<g id="node5" class="node">
<title>51</title>
<ellipse fill="none" stroke="black" cx="63" cy="-90" rx="27" ry="18"/>
<text text-anchor="middle" x="63" y="-84.95" font-family="Times,serif" font-size="14.00">51</text>
</g>
<!-- 70&#45;&#45;51 -->
<g id="edge4" class="edge">
<title>70&#45;&#45;51</title>
<path fill="none" stroke="black" d="M90.65,-144.76C84.83,-133.46 77.11,-118.44 71.3,-107.15"/>
</g>
<!-- 92 -->
<g id="node6" class="node">
<title>92</title>
<ellipse fill="none" stroke="black" cx="135" cy="-90" rx="27" ry="18"/>
<text text-anchor="middle" x="135" y="-84.95" font-family="Times,serif" font-size="14.00">92</text>
</g>
<!-- 70&#45;&#45;92 -->
<g id="edge5" class="edge">
<title>70&#45;&#45;92</title>
<path fill="none" stroke="black" d="M107.35,-144.76C113.17,-133.46 120.89,-118.44 126.7,-107.15"/>
</g>
<!-- 76 -->
<g id="node7" class="node">
<title>76</title>
<ellipse fill="none" stroke="black" cx="99" cy="-18" rx="27" ry="18"/>
<text text-anchor="middle" x="99" y="-12.95" font-family="Times,serif" font-size="14.00">76</text>
</g>
<!-- 92&#45;&#45;76 -->
<g id="edge6" class="edge">
<title>92&#45;&#45;76</title>
<path fill="none" stroke="black" d="M126.65,-72.76C120.83,-61.46 113.11,-46.44 107.3,-35.15"/>
</g>
<!-- 94 -->
<g id="node8" class="node">
<title>94</title>
<ellipse fill="none" stroke="black" cx="171" cy="-18" rx="27" ry="18"/>
<text text-anchor="middle" x="171" y="-12.95" font-family="Times,serif" font-size="14.00">94</text>
</g>
<!-- 92&#45;&#45;94 -->
<g id="edge7" class="edge">
<title>92&#45;&#45;94</title>
<path fill="none" stroke="black" d="M143.35,-72.76C149.17,-61.46 156.89,-46.44 162.7,-35.15"/>
</g>
</g>
</svg>
